<?xml version="1.0" encoding="UTF-8"?>
<svg version="1.1" xmlns="http://www.w3.org/2000/svg" width="377" height="377">
<path d="M0 0 C2.28474172 -0.00407179 4.56948147 -0.00941706 6.85421753 -0.01593018 C13.0236029 -0.02953723 19.19283676 -0.02433249 25.36222458 -0.01479292 C31.83922463 -0.00716196 38.31621229 -0.01425144 44.79321289 -0.01895142 C56.36234762 -0.02474724 67.93141362 -0.01546365 79.50053751 -0.0001734 C89.96360839 0.01322754 100.42657936 0.01089875 110.88964844 -0.00292969 C123.07671183 -0.01902937 135.2637042 -0.02493634 147.45077801 -0.0160929 C153.8886066 -0.01143204 160.32636658 -0.01074771 166.76419067 -0.02070236 C172.81853154 -0.02941125 178.872685 -0.02327868 184.92700577 -0.00601959 C187.14001277 -0.00207564 189.35303572 -0.00315261 191.56603622 -0.00980759 C208.01725188 -0.05469339 222.05441085 1.19967257 237.15234375 8.38818359 C238.06628906 8.80712891 238.98023438 9.22607422 239.921875 9.65771484 C247.87363933 13.60515722 253.93686566 19.18142287 260.15234375 25.38818359 C260.89613281 26.12037109 261.63992188 26.85255859 262.40625 27.60693359 C280.72193498 46.81868926 283.45982303 71.1287413 283.42700195 96.42626953 C283.43135499 98.64835785 283.4365401 100.87044468 283.44248962 103.0925293 C283.45582832 109.10098288 283.45646393 115.10937336 283.45392632 121.11783886 C283.45285296 126.14724232 283.4577494 131.1766332 283.46253175 136.20603395 C283.4742418 148.75723985 283.47341205 161.30841528 283.46697494 173.85962132 C283.46181007 184.72478271 283.47305428 195.58985434 283.49207316 206.45499799 C283.5115121 217.64710239 283.5194064 228.83917421 283.5159499 240.03129792 C283.51414357 246.30043566 283.51670796 252.56949121 283.53066444 258.83861542 C283.54330875 264.73862137 283.54123655 270.6384487 283.52825356 276.53845215 C283.52590242 278.6925691 283.52856938 280.84669887 283.53687668 283.00080109 C283.63451304 310.30651757 278.52861696 333.36603421 258.95703125 353.60302734 C242.91330992 369.53502359 222.2911972 377.5513696 199.72450256 377.52862549 C198.32976445 377.53308217 198.32976445 377.53308217 196.9068498 377.53762889 C193.80125328 377.54627775 190.69569548 377.54782092 187.59008789 377.54931641 C185.35888589 377.55394739 183.12768467 377.55897243 180.89648438 377.56436157 C174.8402329 377.5774632 168.78399251 377.58392653 162.72772908 377.58837223 C158.93899783 377.59130743 155.15026958 377.59541315 151.36153984 377.5998764 C140.8519421 377.61198224 130.34234614 377.62236451 119.83274174 377.6257515 C119.1609296 377.62597106 118.48911747 377.62619063 117.79694739 377.62641685 C117.12360835 377.62663512 116.45026931 377.6268534 115.75652605 377.62707829 C114.39229015 377.62752175 113.02805426 377.62796831 111.66381836 377.62841797 C110.98712305 377.6286394 110.31042775 377.62886083 109.61322653 377.62908897 C98.66692065 377.6330306 87.7206816 377.65046671 76.77440149 377.67377749 C65.51013796 377.69756977 54.24590664 377.70969971 42.98161405 377.71111941 C36.66768151 377.71216418 30.35384324 377.71800155 24.03993416 377.73593903 C18.09322085 377.75250465 12.1466718 377.75453419 6.19994354 377.74580002 C4.02808884 377.74503409 1.856225 377.74931306 -0.31560707 377.75925827 C-15.21042828 377.82341458 -30.43703347 377.7433085 -44.16015625 371.13818359 C-44.82128418 370.83082275 -45.48241211 370.52346191 -46.16357422 370.20678711 C-67.13288055 360.23196391 -81.8587641 343.86898849 -89.99804688 322.24414062 C-92.9854617 313.74951077 -94.14690046 305.35382334 -94.11508179 296.37852478 C-94.1196129 295.42234035 -94.12414401 294.46615591 -94.12881243 293.48099619 C-94.14138663 290.30409362 -94.13984057 287.12736402 -94.13818359 283.95043945 C-94.14417331 281.66130353 -94.15097987 279.37216961 -94.15853882 277.08303833 C-94.17616352 270.88226272 -94.18089279 264.68154236 -94.18217039 258.48074412 C-94.18359485 254.60002177 -94.18787011 250.71931333 -94.19316483 246.83859444 C-94.21070228 233.97946163 -94.22000652 221.12037321 -94.21850388 208.26123016 C-94.21842397 207.56940653 -94.21834405 206.8775829 -94.21826172 206.16479492 C-94.21817996 205.47211474 -94.2180982 204.77943456 -94.21801396 204.06576408 C-94.2172021 192.8551699 -94.23631858 181.64471042 -94.26453845 170.43415516 C-94.29336425 158.89066504 -94.3067083 147.34725782 -94.3053509 135.80372912 C-94.30484288 129.33608594 -94.31043701 122.86859521 -94.331707 116.40098381 C-94.35118778 110.31136729 -94.35114679 104.22204706 -94.33667374 98.13241959 C-94.33459653 95.9093806 -94.33922083 93.68632259 -94.35139465 91.46331596 C-94.48876085 64.62036813 -88.27222591 42.64065839 -69.4453125 22.86474609 C-49.34906257 3.77819429 -26.47753422 -0.07962372 0 0 Z " fill="#F9F8D4" transform="translate(93.84765625,-0.38818359375)"/>
<path d="M0 0 C50.82 0 101.64 0 154 0 C154 86.63461538 154 86.63461538 133.75 107.75 C128.58444315 112.697393 123.27475762 116.58440888 117 120 C116.00355469 120.54527344 115.00710938 121.09054687 113.98046875 121.65234375 C95.69570182 130.87363804 67.99891841 133.08747151 48.25 126.9375 C44.9375 125.53515625 44.9375 125.53515625 42 124 C41.030625 123.50371094 40.06125 123.00742187 39.0625 122.49609375 C19.57570967 111.26412432 9.95153695 91.79622856 3.8125 71.0625 C-1.83727699 48.20336047 -2.91687296 23.33498367 0 0 Z " fill="#D60000" transform="translate(163,197)"/>
<path d="M0 0 C2.0715558 0.0085551 4.14038075 -0.02045948 6.21166992 -0.05200195 C22.55233601 -0.13816536 36.75124371 5.6211242 48.6003418 16.92651367 C62.01946822 30.97738468 68.3799694 47.64133618 72.0065918 66.44604492 C72.21928711 67.44120117 72.43198242 68.43635742 72.65112305 69.46166992 C75.14809695 81.74893719 75.16940326 94.33065668 75.1315918 106.82104492 C75.13545898 108.12170898 75.13932617 109.42237305 75.14331055 110.76245117 C75.14137695 112.65930664 75.14137695 112.65930664 75.1394043 114.59448242 C75.13827637 115.72031738 75.13714844 116.84615234 75.13598633 118.00610352 C74.99195182 121.83524728 74.48187451 125.64378319 74.0065918 129.44604492 C24.5065918 129.44604492 -24.9934082 129.44604492 -75.9934082 129.44604492 C-75.9934082 41.94674618 -75.9934082 41.94674618 -54.9934082 20.44604492 C-39.55490425 6.02316486 -21.00906696 -0.13185086 0 0 Z " fill="#D60000" transform="translate(126.993408203125,50.553955078125)"/>
<path d="M0 0 C8.14671241 -0.11714741 16.29305842 -0.2053367 24.44041157 -0.25906086 C28.22580046 -0.28487853 32.01060285 -0.31974763 35.7956543 -0.37719727 C63.29066413 -0.78331739 86.97995399 1.07107088 108 21 C113.57594373 26.70287578 117.74853746 32.87739124 121.375 39.9375 C121.69686279 40.5569751 122.01872559 41.1764502 122.3503418 41.81469727 C127.74057317 52.91021981 128.42676329 64.13595157 128.29296875 76.265625 C128.28854411 77.62353138 128.2854921 78.98144292 128.28381348 80.33935547 C128.26824449 85.30964961 128.22636167 90.2798334 128.1875 95.25 C128.125625 106.3875 128.06375 117.525 128 129 C96.65 129 65.3 129 33 129 C33.33 124.38 33.66 119.76 34 115 C34.54758491 95.00678364 33.85206278 75.47659004 29 56 C28.60361328 54.23849609 28.60361328 54.23849609 28.19921875 52.44140625 C23.66124947 33.54986013 15.05989521 17.02627415 1.6875 2.86328125 C0 1 0 1 0 0 Z " fill="#004455" transform="translate(189,51)"/>
<path d="M0 0 C30.03 0 60.06 0 91 0 C90.67 3.63 90.34 7.26 90 11 C89.22225221 28.19176135 89.88354808 45.07444218 93 62 C93.20882812 63.175625 93.20882812 63.175625 93.421875 64.375 C97.83614737 88.57175223 107.33757387 111.49086096 125 129 C117.58375136 129.07021596 110.16757702 129.12316792 102.75106049 129.15543652 C99.30543589 129.17094162 95.86004242 129.19189342 92.41455078 129.22631836 C63.77789922 129.50474875 40.84239006 127.26830743 19.1875 106.75 C6.88652781 93.87605676 -0.14729218 77.91756239 -0.11352539 60.05493164 C-0.11364593 59.38997146 -0.11376646 58.72501127 -0.11389065 58.03990078 C-0.11315148 55.91328378 -0.10556931 53.78675732 -0.09765625 51.66015625 C-0.09664917 50.3501062 -0.09564209 49.04005615 -0.09460449 47.69030762 C-0.08938747 42.81436279 -0.07542622 37.93843048 -0.0625 33.0625 C-0.041875 22.151875 -0.02125 11.24125 0 0 Z " fill="#004455" transform="translate(51,197)"/>
</svg>
